<?xml version="1.0" standalone="no"?>
<!DOCTYPE svg PUBLIC "-//W3C//DTD SVG 20010904//EN"
 "http://www.w3.org/TR/2001/REC-SVG-20010904/DTD/svg10.dtd">
<svg version="1.0" xmlns="http://www.w3.org/2000/svg"
 width="800.000000pt" height="800.000000pt" viewBox="0 0 800.000000 800.000000"
 preserveAspectRatio="xMidYMid meet">
<metadata>
Created by potrace 1.11, written by Peter Selinger 2001-2013
</metadata>
<g transform="translate(0.000000,800.000000) scale(0.100000,-0.100000)"
fill="#000000" stroke="none">
<path d="M2310 7993 c-468 -48 -822 -169 -1175 -401 -165 -108 -260 -185 -401
-326 -399 -399 -633 -877 -716 -1461 -19 -131 -19 -3479 0 -3610 58 -406 181
-742 390 -1060 108 -165 185 -260 326 -401 399 -399 877 -633 1461 -716 131
-19 3479 -19 3610 0 406 58 742 181 1060 390 165 108 260 185 401 326 399 399
633 877 716 1461 19 131 19 3479 0 3610 -68 483 -243 895 -532 1260 -81 103
-282 304 -385 385 -361 286 -741 448 -1245 532 -57 9 -477 12 -1775 14 -935 0
-1716 -1 -1735 -3z m284 -907 c175 -73 211 -324 65 -449 -149 -128 -379 -54
-430 138 -25 90 17 218 89 273 77 59 189 74 276 38z m1458 -12 c29 -15 98 -70
157 -128 58 -56 167 -156 240 -221 191 -170 485 -467 507 -512 10 -21 20 -66
22 -100 12 -170 -113 -301 -277 -291 -123 7 -151 27 -471 342 -157 155 -337
330 -401 389 -137 126 -162 170 -162 277 0 210 201 337 385 244z m1522 -2 c95
-51 142 -143 133 -259 -15 -194 -223 -301 -394 -203 -29 16 -63 45 -77 63 -73
96 -74 238 0 334 27 36 98 81 147 94 53 13 136 1 191 -29z m666 -644 c51 -16
107 -56 130 -93 34 -56 53 -149 41 -206 -22 -104 -50 -138 -379 -477 -507
-524 -480 -498 -547 -517 -160 -47 -312 42 -345 201 -23 109 2 176 107 287 43
45 167 179 274 297 197 216 441 462 490 494 53 34 145 40 229 14z m-4276 -51
c49 -23 119 -87 467 -429 226 -221 417 -415 426 -432 24 -47 28 -144 9 -204
-41 -122 -125 -182 -253 -182 -102 0 -148 25 -291 163 -64 62 -175 165 -247
229 -172 154 -468 454 -491 498 -27 51 -26 179 2 241 28 60 82 113 136 133 64
23 169 16 242 -17z m1382 -22 c104 -31 180 -121 191 -228 24 -238 -255 -385
-436 -230 -115 98 -122 298 -15 394 51 44 64 52 112 65 63 17 89 17 148 -1z
m3609 -609 c55 -25 109 -80 133 -135 9 -21 16 -66 16 -106 0 -59 -4 -78 -29
-124 -48 -89 -133 -139 -237 -140 -45 -1 -69 5 -119 32 -198 102 -191 385 11
476 64 29 159 28 225 -3z m-5679 -61 c17 -7 50 -30 72 -50 153 -138 94 -393
-104 -451 -257 -74 -452 237 -272 433 46 49 77 68 135 83 45 11 124 4 169 -15z
m4951 -719 c193 -97 190 -377 -5 -473 -82 -40 -167 -39 -243 4 -100 56 -146
143 -136 260 15 189 212 296 384 209z m-4234 -2 c61 -20 131 -84 165 -148 33
-65 37 -171 8 -226 -33 -61 -151 -194 -364 -407 -114 -115 -253 -260 -309
-324 -143 -162 -216 -209 -324 -209 -178 0 -306 179 -254 355 14 51 29 71 119
164 56 58 174 187 261 286 192 218 324 350 439 440 114 89 163 102 259 69z
m4963 -657 c61 -31 117 -90 135 -143 7 -22 13 -68 13 -104 0 -90 -32 -149
-143 -258 -48 -48 -130 -136 -181 -197 -137 -160 -518 -543 -565 -568 -55 -29
-162 -29 -226 0 -106 48 -161 130 -163 243 0 57 5 78 34 136 28 59 67 103 259
300 124 127 305 312 401 411 141 145 184 183 220 196 63 23 152 16 216 -16z
m-4928 -803 c191 -95 189 -374 -3 -477 -31 -17 -58 -22 -120 -22 -69 0 -86 4
-127 27 -94 56 -145 152 -135 258 6 72 35 127 91 177 55 48 90 61 177 62 51 1
76 -4 117 -25z m686 -659 c56 -24 122 -90 143 -143 10 -27 17 -73 17 -111 0
-89 -34 -149 -149 -266 -49 -50 -147 -156 -217 -235 -69 -80 -211 -229 -315
-332 -172 -171 -192 -187 -242 -202 -68 -20 -104 -20 -168 -1 -102 30 -156 90
-182 202 -16 66 -2 137 41 212 20 37 156 183 416 448 212 217 397 402 411 413
59 42 165 48 245 15z m2795 -5 c24 -11 78 -53 120 -93 42 -40 182 -170 311
-289 129 -118 290 -272 357 -341 109 -113 124 -131 139 -183 43 -150 -35 -309
-170 -345 -67 -18 -174 -7 -232 25 -61 33 -850 800 -879 854 -15 29 -20 56
-20 122 0 76 3 91 30 139 34 61 76 97 137 116 65 20 155 18 207 -5z m1448 -52
c82 -38 153 -149 153 -238 0 -45 -28 -123 -59 -166 -17 -22 -54 -53 -83 -70
-46 -25 -63 -29 -128 -29 -89 1 -135 21 -197 87 -49 54 -67 104 -67 183 2 193
205 317 381 233z m-5671 -66 c52 -27 118 -99 135 -148 18 -52 15 -150 -5 -196
-85 -195 -340 -221 -465 -47 -103 141 -35 341 136 405 51 19 148 12 199 -14z
m2148 -592 c54 -29 124 -91 374 -335 170 -165 350 -340 402 -390 111 -106 135
-150 134 -245 -1 -109 -57 -204 -149 -253 -30 -16 -59 -21 -115 -21 -100 -1
-137 20 -270 148 -58 56 -159 149 -225 206 -196 170 -511 488 -534 540 -45 99
-20 232 59 311 88 88 204 102 324 39z m1411 6 c129 -54 195 -230 135 -359 -94
-201 -379 -205 -480 -7 -110 216 119 460 345 366z m-2152 -753 c52 -29 102
-88 124 -146 22 -62 16 -138 -18 -206 -49 -98 -125 -145 -234 -145 -156 1
-264 109 -265 264 0 206 211 331 393 233z m2950 0 c52 -29 102 -88 124 -146
22 -62 16 -138 -18 -206 -49 -98 -125 -145 -234 -145 -156 1 -264 109 -265
264 0 206 211 331 393 233z"/>
</g>
</svg>
