<svg width="269" height="59" viewBox="0 0 269 59" version="1.1" xmlns="http://www.w3.org/2000/svg" xmlns:xlink="http://www.w3.org/1999/xlink">
<title>particl-logo</title>
<desc>Created using Figma</desc>
<g id="Canvas" transform="translate(641 422)">
<g id="particl-logo">
<g id="logo">
<g id="g10">
<g id="g12">
<g id="path14">
<use xlink:href="#path0_fill" transform="matrix(0.133333 0 0 -0.133333 -571.06 -381.21)" fill="#212121"/>
</g>
<g id="path16">
<use xlink:href="#path1_fill" transform="matrix(0.133333 0 0 -0.133333 -557.247 -386.35)" fill="#212121"/>
</g>
<g id="path18">
<use xlink:href="#path2_fill" transform="matrix(0.133333 0 0 -0.133333 -542.378 -386.71)" fill="#212121"/>
</g>
<g id="path20">
<use xlink:href="#path3_fill" transform="matrix(0.133333 0 0 -0.133333 -533.505 -386.71)" fill="#212121"/>
</g>
<g id="path22">
<use xlink:href="#path4_fill" transform="matrix(0.133333 0 0 -0.133333 -525.28 -386.71)" fill="#212121"/>
</g>
<g id="path24">
<use xlink:href="#path5_fill" transform="matrix(0.133333 0 0 -0.133333 -519.141 -386.35)" fill="#212121"/>
</g>
<g id="path26">
<use xlink:href="#path6_fill" transform="matrix(0.133333 0 0 -0.133333 -508.181 -386.71)" fill="#212121"/>
</g>
<g id="path28">
<use xlink:href="#path7_fill" transform="matrix(0.133333 0 0 -0.133333 -501.995 -390.595)" fill="#02E8AF"/>
</g>
<g id="path30">
<use xlink:href="#path8_fill" transform="matrix(0.133333 0 0 -0.133333 -614.812 -409.439)" fill="#02E8AF"/>
</g>
<g id="path32">
<use xlink:href="#path9_fill" transform="matrix(0.133333 0 0 -0.133333 -600.877 -403.141)" fill="#02E8AF"/>
</g>
<g id="path34">
<use xlink:href="#path10_fill" transform="matrix(0.133333 0 0 -0.133333 -634.764 -403.181)" fill="#02E8AF"/>
</g>
<g id="path36">
<use xlink:href="#path11_fill" transform="matrix(0.133333 0 0 -0.133333 -640.698 -389.203)" fill="#02E8AF"/>
</g>
<g id="path38">
<use xlink:href="#path12_fill" transform="matrix(0.133333 0 0 -0.133333 -594.63 -383.174)" fill="#02E8AF"/>
</g>
<g id="path40">
<use xlink:href="#path13_fill" transform="matrix(0.133333 0 0 -0.133333 -634.447 -369.246)" fill="#02E8AF"/>
</g>
<g id="path42">
<use xlink:href="#path14_fill" transform="matrix(0.133333 0 0 -0.133333 -600.913 -369.578)" fill="#02E8AF"/>
</g>
<g id="path44">
<use xlink:href="#path15_fill" transform="matrix(0.133333 0 0 -0.133333 -620.853 -363.298)" fill="#02E8AF"/>
</g>
<g id="path46">
<use xlink:href="#path16_fill" transform="matrix(0.133333 0 0 -0.133333 -628.499 -416.679)" fill="#02E8AF"/>
</g>
<g id="path48">
<use xlink:href="#path17_fill" transform="matrix(0.133333 0 0 -0.133333 -621.052 -409.872)" fill="#02E8AF"/>
</g>
<g id="path50">
<use xlink:href="#path18_fill" transform="matrix(0.133333 0 0 -0.133333 -641 -403.619)" fill="#02E8AF"/>
</g>
<g id="path52">
<use xlink:href="#path19_fill" transform="matrix(0.133333 0 0 -0.133333 -600.443 -416.882)" fill="#02E8AF"/>
</g>
<g id="path54">
<use xlink:href="#path20_fill" transform="matrix(0.133333 0 0 -0.133333 -587.211 -404.261)" fill="#02E8AF"/>
</g>
<g id="path56">
<use xlink:href="#path21_fill" transform="matrix(0.133333 0 0 -0.133333 -594.194 -396.908)" fill="#02E8AF"/>
</g>
<g id="path58">
<use xlink:href="#path22_fill" transform="matrix(0.133333 0 0 -0.133333 -587.223 -376.241)" fill="#02E8AF"/>
</g>
<g id="path60">
<use xlink:href="#path23_fill" transform="matrix(0.133333 0 0 -0.133333 -607.148 -370)" fill="#02E8AF"/>
</g>
<g id="path62">
<use xlink:href="#path24_fill" transform="matrix(0.133333 0 0 -0.133333 -599.798 -363)" fill="#02E8AF"/>
</g>
<g id="path64">
<use xlink:href="#path25_fill" transform="matrix(0.133333 0 0 -0.133333 -627.777 -363)" fill="#02E8AF"/>
</g>
<g id="path66">
<use xlink:href="#path26_fill" transform="matrix(0.133333 0 0 -0.133333 -634.008 -383.044)" fill="#02E8AF"/>
</g>
<g id="path68">
<use xlink:href="#path27_fill" transform="matrix(0.133333 0 0 -0.133333 -641 -375.606)" fill="#02E8AF"/>
</g>
</g>
</g>
</g>
<g id="foundation">
<use xlink:href="#path28_fill" transform="translate(-493 -407)" fill="#212121"/>
</g>
</g>
</g>
<defs>
<path id="path0_fill" d="M 30.214 96.0162C 26.0777 91.8732 24.101 86.108 24.101 81.2433C 24.101 76.1998 26.0777 70.9753 29.8568 67.0133C 33.6317 63.2304 39.0262 60.8885 44.6014 60.8885C 49.4582 60.8885 54.6741 62.8706 58.4511 66.4728C 62.5873 70.4367 64.7468 76.5617 64.7468 81.7841C 64.7468 87.7302 62.2281 92.9547 58.6318 96.376C 54.8527 99.9803 49.8174 101.96 44.6014 101.96C 37.4087 101.96 32.7327 98.5389 30.214 96.0162ZM 25.8991 0L -2.20507e-05 0L -2.20507e-05 121.598L 25.8991 121.598L 25.8991 112.049C 34.3522 123.037 44.7821 124.299 50.8992 124.299C 65.2846 124.299 74.2776 117.993 79.3129 112.95C 86.5077 105.743 91.3623 94.7558 91.3623 81.6052C 91.3623 67.7329 86.5077 57.2863 78.5945 49.3599C 70.6812 41.4322 62.0475 38.5487 51.437 38.5487C 35.4299 38.5487 28.5964 46.6566 25.8991 50.4394L 25.8991 0Z"/>
<path id="path1_fill" d="M 32.5561 57.6463C 29.8568 54.9467 26.6196 50.2609 26.6196 43.0565C 26.6196 35.85 29.6761 31.1662 32.0142 28.6453C 35.6126 24.8623 41.1878 22.3398 47.3008 22.3398C 52.5167 22.3398 57.3755 24.5001 60.7912 27.924C 64.209 31.1662 67.0869 36.2098 67.0869 43.0565C 67.0869 48.8196 64.9275 54.225 61.1505 57.8272C 57.1949 61.6104 51.439 63.4115 46.7629 63.4115C 41.1878 63.4115 35.9718 61.0717 32.5561 57.6463ZM 65.4673 83.049L 91.3664 83.049L 91.3664 2.70434L 65.4673 2.70434L 65.4673 12.4312C 58.4532 1.62244 48.3826 -4.91929e-06 41.7277 -4.91929e-06C 30.216 -4.91929e-06 20.5046 2.88343 11.6923 12.2504C 3.2392 21.2579 1.60369e-05 31.707 1.60369e-05 42.3348C 1.60369e-05 55.8452 5.03738 67.3756 12.4107 74.761C 19.4249 81.7865 29.1383 85.7506 40.2867 85.7506C 47.1222 85.7506 58.094 84.1284 65.4673 74.0413L 65.4673 83.049Z"/>
<path id="path2_fill" d="M 1.80415e-05 80.3446L 25.8991 80.3446L 25.8991 67.7348C 28.2351 72.2376 31.8315 76.3805 35.9698 78.9033C 40.2866 81.605 44.7821 82.3246 49.8174 82.3246C 53.0545 82.3246 55.3946 81.9648 58.2705 81.0643L 56.8315 56.7451C 53.4158 58.5462 49.6388 59.6277 45.1434 59.6277C 39.5661 59.6277 35.4299 57.6457 32.1928 54.2223C 26.4369 48.0973 25.8991 39.4516 25.8991 32.6049L 25.8991 -1.80709e-06L 1.80415e-05 -1.80709e-06L 1.80415e-05 80.3446Z"/>
<path id="path3_fill" d="M 34.892 59.4468L 34.892 -1.80709e-06L 8.99092 -1.80709e-06L 8.99092 59.4468L 6.01382e-06 59.4468L 6.01382e-06 80.3446L 8.99092 80.3446L 8.99092 106.284L 34.892 106.284L 34.892 80.3446L 50.8971 80.3446L 50.8971 59.4468L 34.892 59.4468Z"/>
<path id="path4_fill" d="M 28.0565 80.3446L 28.0565 -1.80709e-06L 2.15742 -1.80709e-06L 2.15742 80.3446L 28.0565 80.3446ZM 15.108 129.703C 23.5611 129.703 30.216 123.037 30.216 114.572C 30.216 106.105 23.5611 99.4393 15.108 99.4393C 6.65284 99.4393 -3.60829e-05 106.105 -3.60829e-05 114.572C -3.60829e-05 123.037 6.65284 129.703 15.108 129.703Z"/>
<path id="path5_fill" d="M 64.207 57.6463C 57.9134 62.8707 51.437 63.7734 47.3007 63.7734C 39.2069 63.7734 34.3522 59.8093 32.554 58.0082C 29.1363 54.5848 26.6196 49.3604 26.6196 42.8755C 26.6196 36.9314 28.775 31.8879 32.0142 28.4646C 35.9698 24.1402 41.9062 21.9799 47.6621 21.9799C 52.1575 21.9799 58.2726 23.2401 64.207 28.2838L 64.207 4.86465C 57.3735 1.0819 50.8991 -4.91929e-06 43.7044 -4.91929e-06C 30.216 -4.91929e-06 19.9627 4.86464 12.5914 12.0714C 6.47426 18.0154 2.40553e-05 28.1048 2.40553e-05 42.6946C 2.40553e-05 56.3859 5.75581 67.1946 13.3098 74.4012C 22.3028 82.868 32.9133 85.7506 43.8851 85.7506C 50.8992 85.7506 57.3735 84.4882 64.207 81.2458L 64.207 57.6463Z"/>
<path id="path6_fill" d="M 25.8992 131.325L 25.8992 -1.80709e-06L -4.00921e-05 -1.80709e-06L -4.00921e-05 131.325L 25.8992 131.325Z"/>
<path id="path7_fill" d="M 6.19096 38.0386C 14.7467 47.0503 28.9781 47.4101 37.9752 38.8384C 46.9743 30.2687 47.3316 16.014 38.7758 7.00023C 30.2181 -2.01191 15.9886 -2.36926 6.9895 6.20042C -2.00757 14.7701 -2.36682 29.0248 6.19096 38.0386Z"/>
<path id="path8_fill" d="M 11.7226 90.3755C 25.9664 96.5849 36.1212 83.426 44.9028 74.6322C 60.5876 61.3048 75.5006 47.0707 89.6459 32.1313C 97.7561 23.2697 94.4718 7.05558 83.4446 2.12102C 74.9648 -2.51129 64.6089 0.979894 58.1079 7.42566C 41.0478 23.8084 24.7266 40.995 6.99728 56.6396C -3.99523 65.6349 -1.75017 85.1716 11.7226 90.3755Z"/>
<path id="path9_fill" d="M 62.5836 92.2249C 72.2376 97.4288 87.6863 93.1974 90.3692 81.6834C 94.4582 71.4442 87.8895 61.3078 80.6825 54.492C 64.8971 38.8823 49.5468 22.8368 34.1966 6.79129C 28.6009 0.00832876 18.7479 -1.80512 10.8367 1.85467C -0.590785 6.58979 -3.67396 23.7764 4.93924 32.4715C 24.3107 52.2098 41.4037 74.333 62.5836 92.2249Z"/>
<path id="path10_fill" d="M 8.23256 88.7341C 18.2876 94.8097 30.7211 90.7819 38.1614 82.5227C 54.8853 65.6054 72.145 49.2556 89.0702 32.6056C 100.265 22.2327 92.4558 0.278037 76.8383 0.210187C 63.7674 -1.80476 56.829 11.1546 48.0818 18.2378C 32.7319 30.9607 18.6893 45.127 4.7805 59.394C -3.09598 67.5175 -0.748906 82.4219 8.23256 88.7341Z"/>
<path id="path11_fill" d="M 65.7122 93.5629C 82.5702 100.076 99.0256 78.7921 88.5023 64.1241C 76.0682 47.875 59.8796 34.817 46.3069 19.4746C 38.2965 11.2175 30.8234 -1.47213 17.4838 0.139823C 1.86556 0.743689 -5.97645 22.4971 5.38484 33.0364C 25.8961 52.7089 42.1846 77.5852 65.7122 93.5629Z"/>
<path id="path12_fill" d="M 62.0183 91.7201C 73.6141 99.3069 91.1095 90.6797 91.479 76.68C 93.1868 63.5211 80.15 56.5737 72.9778 47.7433C 60.3433 32.5034 46.469 18.3021 32.1574 4.63977C 21.7009 -5.26223 2.16108 1.68748 0.284891 16.0197C -2.16195 30.8256 11.7124 40.0226 20.4611 49.4885C 34.9389 62.9516 47.171 78.8285 62.0183 91.7201Z"/>
<path id="path13_fill" d="M 62.7977 92.0778C 74.0581 98.8258 91.1517 90.803 91.4196 77.1077C 93.4972 63.8807 80.4599 56.8635 73.322 48.0346C 60.7194 32.7603 46.6776 18.763 32.5003 4.93105C 23.2838 -4.40081 3.64356 0.0992926 1.02942 13.4911C -3.42805 26.4153 7.53161 36.8564 15.8763 44.9817C 32.0649 60.1557 46.1412 77.5101 62.7977 92.0778Z"/>
<path id="path14_fill" d="M 11.4442 90.0974C 17.6783 92.2433 25.5874 92.4119 30.8485 87.9137C 50.3555 69.3495 71.1003 52.0948 89.4331 32.2889C 95.0966 26.5482 95.5995 16.9134 91.8471 9.99911C 86.5511 -2.42158 68.3845 -2.72362 59.5702 6.07182C 41.7752 22.8906 24.6822 40.5463 6.78454 57.2991C -4.03944 65.725 -1.49405 85.2287 11.4442 90.0974Z"/>
<path id="path15_fill" d="M 10.8191 89.7234C 20.1019 94.7592 30.995 89.9907 37.6647 82.9094C 54.4884 66.1918 71.3124 49.4743 88.7749 33.4266C 100.27 22.4836 92.4944 0.292579 76.3067 0.126325C 63.2371 -1.41813 56.4323 11.5728 47.6516 18.6887C 32.4022 31.3456 18.2594 45.2779 4.58559 59.6124C -3.65976 68.4415 -0.308087 84.8547 10.8191 89.7234Z"/>
<path id="path16_fill" d="M 38.3234 19.1933C 38.3234 8.59228 29.7445 -1.10433e-05 19.1617 -1.10433e-05C 8.57893 -1.10433e-05 9.02073e-07 8.59228 9.02073e-07 19.1933C 9.02073e-07 29.7924 8.57893 38.3867 19.1617 38.3867C 29.7445 38.3867 38.3234 29.7924 38.3234 19.1933Z"/>
<path id="path17_fill" d="M 38.3224 19.1934C 38.3224 8.59229 29.7435 6.02363e-06 19.1609 6.02363e-06C 8.5781 6.02363e-06 -3.00691e-07 8.59229 -3.00691e-07 19.1934C -3.00691e-07 29.7924 8.5781 38.3867 19.1609 38.3867C 29.7435 38.3867 38.3224 29.7924 38.3224 19.1934Z"/>
<path id="path18_fill" d="M 38.3232 19.1934C 38.3232 8.5923 29.7443 -1.20473e-05 19.1608 -1.20473e-05C 8.57892 -1.20473e-05 0 8.5923 0 19.1934C 0 29.7924 8.57892 38.3847 19.1608 38.3847C 29.7443 38.3847 38.3232 29.7924 38.3232 19.1934Z"/>
<path id="path19_fill" d="M 38.3222 19.1913C 38.3222 8.59231 29.7439 -4.01575e-06 19.1621 -4.01575e-06C 8.5783 -4.01575e-06 -7.01612e-06 8.59231 -7.01612e-06 19.1913C -7.01612e-06 29.7924 8.5783 38.3847 19.1621 38.3847C 29.7439 38.3847 38.3222 29.7924 38.3222 19.1913Z"/>
<path id="path20_fill" d="M 38.3222 19.1934C 38.3222 8.59434 29.7439 -3.01181e-06 19.1621 -3.01181e-06C 8.58038 -3.01181e-06 4.00921e-06 8.59434 4.00921e-06 19.1934C 4.00921e-06 29.7924 8.58038 38.3867 19.1621 38.3867C 29.7439 38.3867 38.3222 29.7924 38.3222 19.1934Z"/>
<path id="path21_fill" d="M 38.3222 19.1913C 38.3222 8.59229 29.7418 3.01181e-06 19.1601 3.01181e-06C 8.57831 3.01181e-06 5.01152e-06 8.59229 5.01152e-06 19.1913C 5.01152e-06 29.7903 8.57831 38.3826 19.1601 38.3826C 29.7418 38.3826 38.3222 29.7903 38.3222 19.1913Z"/>
<path id="path22_fill" d="M 38.3222 19.1913C 38.3222 8.59229 29.7439 2.25886e-06 19.1601 2.25886e-06C 8.57829 2.25886e-06 -7.01612e-06 8.59229 -7.01612e-06 19.1913C -7.01612e-06 29.7922 8.57829 38.3851 19.1601 38.3851C 29.7439 38.3851 38.3222 29.7922 38.3222 19.1913Z"/>
<path id="path23_fill" d="M 38.3242 19.1927C 38.3242 8.59209 29.7439 1.02904e-06 19.1621 1.02904e-06C 8.58037 1.02904e-06 -9.02073e-06 8.59209 -9.02073e-06 19.1927C -9.02073e-06 29.792 8.58037 38.3865 19.1621 38.3865C 29.7439 38.3865 38.3242 29.792 38.3242 19.1927Z"/>
<path id="path24_fill" d="M 38.3242 19.1937C 38.3242 8.59211 29.7439 0 19.1621 0C 8.5783 0 3.00691e-06 8.59211 3.00691e-06 19.1937C 3.00691e-06 29.792 8.5783 38.3849 19.1621 38.3849C 29.7439 38.3849 38.3242 29.792 38.3242 19.1937Z"/>
<path id="path25_fill" d="M 38.3232 19.1913C 38.3232 8.5921 29.7443 5.99153e-11 19.1625 5.99153e-11C 8.57892 5.99153e-11 -2.33367e-14 8.5921 -2.33367e-14 19.1913C -2.33367e-14 29.792 8.57892 38.3841 19.1625 38.3841C 29.7443 38.3841 38.3232 29.792 38.3232 19.1913Z"/>
<path id="path26_fill" d="M 38.3232 19.1913C 38.3232 8.59291 29.7443 2.10827e-06 19.1625 2.10827e-06C 8.57892 2.10827e-06 6.01382e-07 8.59291 6.01382e-07 19.1913C 6.01382e-07 29.793 8.57892 38.3851 19.1625 38.3851C 29.7443 38.3851 38.3232 29.793 38.3232 19.1913Z"/>
<path id="path27_fill" d="M 38.3232 19.1913C 38.3232 8.59209 29.7443 -7.52953e-07 19.1608 -7.52953e-07C 8.57892 -7.52953e-07 0 8.59209 0 19.1913C 0 29.792 8.57892 38.3849 19.1608 38.3849C 29.7443 38.3849 38.3232 29.792 38.3232 19.1913Z"/>
<path id="path28_fill" d="M 5.103 8.954L 8.001 8.954L 8.001 11.474L 5.187 11.474L 5.187 20L 1.911 20L 1.911 11.474L 0.168 11.474L 0.168 8.954L 1.911 8.954L 1.911 8.45C 1.911 7.162 2.289 6.14 3.045 5.384C 3.815 4.628 4.893 4.25 6.279 4.25C 6.769 4.25 7.231 4.306 7.665 4.418C 8.113 4.516 8.484 4.663 8.778 4.859L 7.917 7.232C 7.539 6.966 7.098 6.833 6.594 6.833C 5.6 6.833 5.103 7.379 5.103 8.471L 5.103 8.954ZM 14.8655 20.168C 13.6755 20.168 12.6045 19.923 11.6525 19.433C 10.7145 18.929 9.97954 18.236 9.44754 17.354C 8.91554 16.472 8.64954 15.471 8.64954 14.351C 8.64954 13.231 8.91554 12.23 9.44754 11.348C 9.97954 10.466 10.7145 9.78 11.6525 9.29C 12.6045 8.786 13.6755 8.534 14.8655 8.534C 16.0555 8.534 17.1195 8.786 18.0575 9.29C 18.9955 9.78 19.7305 10.466 20.2625 11.348C 20.7945 12.23 21.0605 13.231 21.0605 14.351C 21.0605 15.471 20.7945 16.472 20.2625 17.354C 19.7305 18.236 18.9955 18.929 18.0575 19.433C 17.1195 19.923 16.0555 20.168 14.8655 20.168ZM 14.8655 17.48C 15.7055 17.48 16.3915 17.2 16.9235 16.64C 17.4695 16.066 17.7425 15.303 17.7425 14.351C 17.7425 13.399 17.4695 12.643 16.9235 12.083C 16.3915 11.509 15.7055 11.222 14.8655 11.222C 14.0255 11.222 13.3325 11.509 12.7865 12.083C 12.2405 12.643 11.9675 13.399 11.9675 14.351C 11.9675 15.303 12.2405 16.066 12.7865 16.64C 13.3325 17.2 14.0255 17.48 14.8655 17.48ZM 34.6323 8.702L 34.6323 20L 31.5243 20L 31.5243 18.656C 31.0903 19.146 30.5723 19.524 29.9703 19.79C 29.3683 20.042 28.7173 20.168 28.0173 20.168C 26.5333 20.168 25.3573 19.741 24.4893 18.887C 23.6213 18.033 23.1873 16.766 23.1873 15.086L 23.1873 8.702L 26.4633 8.702L 26.4633 14.603C 26.4633 16.423 27.2263 17.333 28.7523 17.333C 29.5363 17.333 30.1663 17.081 30.6423 16.577C 31.1183 16.059 31.3563 15.296 31.3563 14.288L 31.3563 8.702L 34.6323 8.702ZM 44.5343 8.534C 45.9343 8.534 47.0613 8.954 47.9153 9.794C 48.7833 10.634 49.2173 11.88 49.2173 13.532L 49.2173 20L 45.9413 20L 45.9413 14.036C 45.9413 13.14 45.7453 12.475 45.3533 12.041C 44.9613 11.593 44.3943 11.369 43.6523 11.369C 42.8263 11.369 42.1683 11.628 41.6783 12.146C 41.1883 12.65 40.9433 13.406 40.9433 14.414L 40.9433 20L 37.6673 20L 37.6673 8.702L 40.7963 8.702L 40.7963 10.025C 41.2303 9.549 41.7693 9.185 42.4133 8.933C 43.0573 8.667 43.7643 8.534 44.5343 8.534ZM 63.8179 4.418L 63.8179 20L 60.6889 20L 60.6889 18.698C 59.8769 19.678 58.7009 20.168 57.1609 20.168C 56.0969 20.168 55.1309 19.93 54.2629 19.454C 53.4089 18.978 52.7369 18.299 52.2469 17.417C 51.7569 16.535 51.5119 15.513 51.5119 14.351C 51.5119 13.189 51.7569 12.167 52.2469 11.285C 52.7369 10.403 53.4089 9.724 54.2629 9.248C 55.1309 8.772 56.0969 8.534 57.1609 8.534C 58.6029 8.534 59.7299 8.989 60.5419 9.899L 60.5419 4.418L 63.8179 4.418ZM 57.7279 17.48C 58.5539 17.48 59.2399 17.2 59.7859 16.64C 60.3319 16.066 60.6049 15.303 60.6049 14.351C 60.6049 13.399 60.3319 12.643 59.7859 12.083C 59.2399 11.509 58.5539 11.222 57.7279 11.222C 56.8879 11.222 56.1949 11.509 55.6489 12.083C 55.1029 12.643 54.8299 13.399 54.8299 14.351C 54.8299 15.303 55.1029 16.066 55.6489 16.64C 56.1949 17.2 56.8879 17.48 57.7279 17.48ZM 71.4069 8.534C 73.1569 8.534 74.5009 8.954 75.4389 9.794C 76.3769 10.62 76.8459 11.873 76.8459 13.553L 76.8459 20L 73.7799 20L 73.7799 18.593C 73.1639 19.643 72.0159 20.168 70.3359 20.168C 69.4679 20.168 68.7119 20.021 68.0679 19.727C 67.4379 19.433 66.9549 19.027 66.6189 18.509C 66.2829 17.991 66.1149 17.403 66.1149 16.745C 66.1149 15.695 66.5069 14.869 67.2909 14.267C 68.0889 13.665 69.3139 13.364 70.9659 13.364L 73.5699 13.364C 73.5699 12.65 73.3529 12.104 72.9189 11.726C 72.4849 11.334 71.8339 11.138 70.9659 11.138C 70.3639 11.138 69.7689 11.236 69.1809 11.432C 68.6069 11.614 68.1169 11.866 67.7109 12.188L 66.5349 9.899C 67.1509 9.465 67.8859 9.129 68.7399 8.891C 69.6079 8.653 70.4969 8.534 71.4069 8.534ZM 71.1549 17.963C 71.7149 17.963 72.2119 17.837 72.6459 17.585C 73.0799 17.319 73.3879 16.934 73.5699 16.43L 73.5699 15.275L 71.3229 15.275C 69.9789 15.275 69.3069 15.716 69.3069 16.598C 69.3069 17.018 69.4679 17.354 69.7899 17.606C 70.1259 17.844 70.5809 17.963 71.1549 17.963ZM 87.0978 19.454C 86.7758 19.692 86.3768 19.874 85.9008 20C 85.4388 20.112 84.9488 20.168 84.4308 20.168C 83.0868 20.168 82.0438 19.825 81.3018 19.139C 80.5738 18.453 80.2098 17.445 80.2098 16.115L 80.2098 11.474L 78.4668 11.474L 78.4668 8.954L 80.2098 8.954L 80.2098 6.203L 83.4858 6.203L 83.4858 8.954L 86.2998 8.954L 86.2998 11.474L 83.4858 11.474L 83.4858 16.073C 83.4858 16.549 83.6048 16.92 83.8428 17.186C 84.0948 17.438 84.4448 17.564 84.8928 17.564C 85.4108 17.564 85.8518 17.424 86.2158 17.144L 87.0978 19.454ZM 88.9368 8.702L 92.2128 8.702L 92.2128 20L 88.9368 20L 88.9368 8.702ZM 90.5748 7.127C 89.9728 7.127 89.4828 6.952 89.1048 6.602C 88.7268 6.252 88.5378 5.818 88.5378 5.3C 88.5378 4.782 88.7268 4.348 89.1048 3.998C 89.4828 3.648 89.9728 3.473 90.5748 3.473C 91.1768 3.473 91.6668 3.641 92.0448 3.977C 92.4228 4.313 92.6118 4.733 92.6118 5.237C 92.6118 5.783 92.4228 6.238 92.0448 6.602C 91.6668 6.952 91.1768 7.127 90.5748 7.127ZM 100.629 20.168C 99.4392 20.168 98.3682 19.923 97.4162 19.433C 96.4782 18.929 95.7432 18.236 95.2112 17.354C 94.6792 16.472 94.4132 15.471 94.4132 14.351C 94.4132 13.231 94.6792 12.23 95.2112 11.348C 95.7432 10.466 96.4782 9.78 97.4162 9.29C 98.3682 8.786 99.4392 8.534 100.629 8.534C 101.819 8.534 102.883 8.786 103.821 9.29C 104.759 9.78 105.494 10.466 106.026 11.348C 106.558 12.23 106.824 13.231 106.824 14.351C 106.824 15.471 106.558 16.472 106.026 17.354C 105.494 18.236 104.759 18.929 103.821 19.433C 102.883 19.923 101.819 20.168 100.629 20.168ZM 100.629 17.48C 101.469 17.48 102.155 17.2 102.687 16.64C 103.233 16.066 103.506 15.303 103.506 14.351C 103.506 13.399 103.233 12.643 102.687 12.083C 102.155 11.509 101.469 11.222 100.629 11.222C 99.7892 11.222 99.0962 11.509 98.5502 12.083C 98.0042 12.643 97.7312 13.399 97.7312 14.351C 97.7312 15.303 98.0042 16.066 98.5502 16.64C 99.0962 17.2 99.7892 17.48 100.629 17.48ZM 115.881 8.534C 117.281 8.534 118.408 8.954 119.262 9.794C 120.13 10.634 120.564 11.88 120.564 13.532L 120.564 20L 117.288 20L 117.288 14.036C 117.288 13.14 117.092 12.475 116.7 12.041C 116.308 11.593 115.741 11.369 114.999 11.369C 114.173 11.369 113.515 11.628 113.025 12.146C 112.535 12.65 112.29 13.406 112.29 14.414L 112.29 20L 109.014 20L 109.014 8.702L 112.143 8.702L 112.143 10.025C 112.577 9.549 113.116 9.185 113.76 8.933C 114.404 8.667 115.111 8.534 115.881 8.534Z"/>
</defs>
</svg>
